#!OML:ASF H:\GeneralSubjects\Female5\Project 1\Capture day 1\Session 1\Female5.ASF
:FULLY-SPECIFIED
:DEGREES
143
root -12.7887 16.2042 0.838411 4.29819 67.7363 -6.50315
lowerback 6.68419 2.40311 3.70859
upperback -10.3935 3.91516 -1.13774
thorax -14.9433 1.43838 -4.12014
lowerneck -15.0682 7.0972 13.8219
upperneck 32.5401 8.42086 -3.61098
head 14.5424 5.1596 -2.30322
rclavicle -3.4191e-014 -3.97569e-015
rhumerus -63.0372 8.90918 -85.2408
rradius 33.0532
rwrist -3.35704
rhand -23.2158 -22.2309
rfingers 7.12502
rthumb 3.23468 -52.1861
lclavicle -3.4191e-014 -3.97569e-015
lhumerus -46.3006 -15.3495 87.3158
lradius 39.0903
lwrist -2.21531
lhand -25.6899 33.9784
lfingers 7.12502
lthumb 0.845279 63.9564
rfemur -6.73296 28.1755 28.9545
rtibia -0.317549
rfoot -8.39791 -17.5644
rtoes -21.066
lfemur -3.59314 -24.5894 -25.8677
ltibia 2.95281
lfoot -38.5486 -1.85256
ltoes -19.9239
144
root -12.825 16.2271 0.832997 4.74623 68.3488 -5.94828
lowerback 6.90449 2.39637 3.41965
upperback -10.3341 3.86234 -1.19317
thorax -15.0291 1.43703 -4.02353
lowerneck -15.3097 6.88108 13.296
upperneck 32.5799 8.17401 -3.48154
head 14.543 5.00432 -2.20417
rclavicle -1.4561e-014 7.55382e-015
rhumerus -61.9108 8.22426 -84.5937
rradius 32.4895
rwrist -3.71916
rhand -24.1037 -23.226
rfingers 7.12502
rthumb 2.37722 -53.1925
lclavicle -1.4561e-014 7.55382e-015
lhumerus -46.452 -15.1169 87.1557
lradius 38.8703
lwrist -2.01262
lhand -25.0893 34.3366
lfingers 7.12502
lthumb 1.42534 64.3116
rfemur -7.00283 27.812 28.5988
rtibia 0.104688
rfoot -8.84604 -17.5493
rtoes -20.3639
lfemur -4.08078 -24.2542 -25.9672
ltibia 3.49013
lfoot -37.7822 -1.19077
ltoes -21.753
145
root -12.8543 16.2472 0.828338 5.24625 68.9775 -5.33271
lowerback 6.96423 2.37762 3.05954
upperback -10.271 3.78459 -1.18653
thorax -15.0169 1.44178 -3.8016
lowerneck -15.3534 6.69305 13.0954
upperneck 32.7085 8.01878 -3.63196
head 14.5862 4.90092 -2.26137
rclavicle 4.96962e-016 -2.3059e-014
rhumerus -61.03 8.07498 -84.4113
rradius 32.3908
rwrist -5.16012
rhand -24.7368 -23.5876
rfingers 7.12502
rthumb 1.76574 -53.5601
lclavicle 4.96962e-016 -2.3059e-014
lhumerus -46.6075 -14.6093 87.0177
lradius 38.5615
lwrist -2.04456
lhand -25.3665 33.8386
lfingers 7.12502
lthumb 1.1576 63.8152
rfemur -7.03472 27.1858 28.2737
rtibia 0.141125
rfoot -8.73297 -17.3686
rtoes -21.7553
lfemur -4.30593 -24.1665 -26.1961
ltibia 3.66602
lfoot -37.2325 -0.632061
ltoes -23.4167
146
root -12.8725 16.2635 0.827474 5.47887 69.6029 -4.91739
lowerback 6.96465 2.42243 2.81437
upperback -10.1856 3.80335 -1.20989
thorax -14.9227 1.47974 -3.6897
lowerneck -15.2257 6.4844 13.2449
upperneck 32.7423 7.83802 -4.03369
head 14.5789 4.79814 -2.48982
rclavicle -3.14577e-014 9.14409e-015
rhumerus -60.3855 8.10076 -84.6224
rradius 32.7316
rwrist -7.23533
rhand -25.1141 -23.5084
rfingers 7.12502
rthumb 1.40133 -53.4835
lclavicle -3.14577e-014 9.14409e-015
lhumerus -46.7864 -14.4902 86.981
lradius 38.319
lwrist -2.06217
lhand -24.7089 33.8396
lfingers 7.12502
lthumb 1.79269 63.8119
rfemur -6.73143 26.5361 28.1379
rtibia -0.113629
rfoot -8.5239 -17.4066
rtoes -24.0641
lfemur -4.20724 -24.2154 -26.4563
ltibia 3.57016
lfoot -36.8606 -0.407911
ltoes -24.6239
147
root -12.8796 16.2737 0.832951 5.29324 70.3 -4.87567
lowerback 6.97122 2.50471 2.8103
upperback -10.1373 3.90678 -1.27055
thorax -14.8554 1.52724 -3.77199
lowerneck -14.9619 6.2568 13.4293
upperneck 32.7218 7.65257 -4.46274
head 14.5173 4.69749 -2.73944
rclavicle 8.16011e-014 1.51076e-014
rhumerus -60.0035 8.23761 -85.1086
rradius 33.3947
rwrist -9.22432
rhand -24.9474 -23.3707
rfingers 7.12502
rthumb 1.56241 -53.3448
lclavicle 8.16011e-014 1.51076e-014
lhumerus -46.851 -14.5041 86.899
lradius 37.7631
lwrist -2.4272
lhand -24.4538 33.1485
lfingers 7.12502
lthumb 2.03908 63.1185
rfemur -5.99753 26.4301 28.2523
rtibia -0.732114
rfoot -8.80514 -18.1634
rtoes -25.617
lfemur -3.67407 -24.8574 -26.7201
ltibia 3.10707
lfoot -37.0739 0.27874
ltoes -26.3048
148
root -12.8816 16.2787 0.840895 4.92042 71.0199 -5.11395
lowerback 6.95078 2.59826 3.00941
upperback -10.1959 4.05892 -1.36223
thorax -14.8827 1.57085 -4.0157
lowerneck -14.8146 6.01392 13.2922
upperneck 32.9497 7.43266 -4.5539
head 14.5553 4.59631 -2.79907
rclavicle 4.03533e-014 1.55052e-014
rhumerus -59.8846 8.42713 -85.6459
rradius 34.358
rwrist -10.6196
rhand -24.2416 -23.1912
rfingers 7.12502
rthumb 2.24404 -53.1591
lclavicle 4.03533e-014 1.55052e-014
lhumerus -46.9884 -14.3772 86.6457
lradius 37.1337
lwrist -3.27752
lhand -25.3946 31.3168
lfingers 7.12502
lthumb 1.13044 61.2935
rfemur -5.21368 26.8091 28.4395
rtibia -1.49806
rfoot -9.62137 -19.4863
rtoes -26.2246
lfemur -3.09363 -25.7755 -26.8778
ltibia 2.46484
lfoot -37.6693 1.24892
ltoes -28.4855
149
root -12.8841 16.281 0.846899 4.31787 71.7492 -5.66321
lowerback 6.83892 2.66013 3.30407
upperback -10.2695 4.18393 -1.42313
thorax -14.8674 1.59577 -4.26724
lowerneck -14.9292 5.80537 12.7097
upperneck 33.3615 7.18264 -4.11787
head 14.6868 4.49616 -2.56408
rclavicle 1.3418e-014 1.98785e-015
rhumerus -59.7903 8.7498 -86.177
rradius 35.4099
rwrist -11.4455
rhand -23.4492 -22.9828
rfingers 7.12502
rthumb 3.00925 -52.9413
lclavicle 1.3418e-014 1.98785e-015
lhumerus -47.2396 -14.1574 86.2993
lradius 36.759
lwrist -3.91498
lhand -24.7336 31.0831
lfingers 7.12502
lthumb 1.76885 61.0555
rfemur -4.67719 27.1516 28.6477
rtibia -2.01772
rfoot -10.549 -20.756
rtoes -26.2567
lfemur -2.7427 -26.5376 -26.8334
ltibia 1.9585
lfoot -38.0747 2.11545
ltoes -30.4684
150
root -12.8894 16.2803 0.853203 3.07157 72.3906 -6.93522
lowerback 6.61485 2.66695 3.55572
upperback -10.266 4.24653 -1.24276
thorax -14.712 1.61994 -4.20034
lowerneck -14.8063 5.70096 12.5157
upperneck 33.4318 7.13084 -4.13078
head 14.6732 4.45901 -2.54901
rclavicle 8.66701e-014 1.70955e-014
rhumerus -59.4277 9.57287 -86.6538
rradius 36.3264
rwrist -11.8175
rhand -22.8958 -22.4348
rfingers 7.12502
rthumb 3.54374 -52.3851
lclavicle 8.66701e-014 1.70955e-014
lhumerus -47.303 -13.5602 85.9958
lradius 36.2511
lwrist -4.2144
lhand -19.6738 34.8582
lfingers 7.12502
lthumb 6.65474 64.7336
rfemur -4.45398 27.362 29.0194
rtibia -2.18778
rfoot -11.3097 -21.5723
rtoes -25.6567
lfemur -2.57293 -27.2173 -26.4584
ltibia 1.62555
lfoot -38.2855 2.9556
ltoes -32.0551
151
root -12.896 16.2791 0.860853 1.72298 72.9439 -8.40129
lowerback 6.38322 2.65583 3.73382
upperback -10.293 4.28696 -0.970578
thorax -14.6035 1.64729 -3.98834
lowerneck -14.5501 5.59856 12.5613
upperneck 33.3678 7.16406 -4.55669
head 14.6073 4.43148 -2.73352
rclavicle 3.49364e-014 5.1684e-015
rhumerus -58.9941 10.5342 -86.992
rradius 37.1584
rwrist -11.7513
rhand -22.5707 -21.6421
rfingers 7.12502
rthumb 3.85771 -51.5869
lclavicle 3.49364e-014 5.1684e-015
lhumerus -47.3608 -12.6849 85.5932
lradius 35.8019
lwrist -4.27204
lhand -23.3448 35.9104
lfingers 7.12502
lthumb 3.11012 65.8675
rfemur -4.50467 27.5384 29.3641
rtibia -2.10963
rfoot -12.0275 -22.2391
rtoes -25.5195
lfemur -2.71298 -27.679 -25.9177
ltibia 1.64243
lfoot -38.282 3.30465
ltoes -33.3067
152
root -12.9003 16.2776 0.865948 1.33697 73.5476 -8.88682
lowerback 6.19712 2.65976 3.80058
upperback -10.3895 4.31222 -0.923085
thorax -14.5995 1.65931 -3.96954
lowerneck -14.6903 5.40434 12.1626
upperneck 33.7133 6.99124 -4.47839
head 14.7509 4.33404 -2.66341
rclavicle -2.08724e-014 -8.34896e-015
rhumerus -58.7223 11.172 -87.3044
rradius 37.9086
rwrist -11.5866
rhand -22.9545 -20.982
rfingers 7.12502
rthumb 3.48706 -50.9333
lclavicle -2.08724e-014 -8.34896e-015
lhumerus -47.6008 -11.9365 84.9231
lradius 35.6105
lwrist -4.06968
lhand -29.792 28.5518
lfingers 7.12502
lthumb -3.11663 58.5087
rfemur -4.7007 27.2505 29.3279
rtibia -1.85358
rfoot -13.0905 -22.263
rtoes -24.2061
lfemur -3.04647 -28.0381 -25.7258
ltibia 1.94101
lfoot -38.1785 2.92938
ltoes -34.1416
153
root -12.9045 16.2723 0.868428 1.84826 74.1854 -8.43816
lowerback 6.04752 2.6891 3.72896
upperback -10.5106 4.33598 -1.04659
thorax -14.6436 1.67126 -4.06783
lowerneck -14.8947 5.21797 11.6614
upperneck 34.1497 6.76519 -4.12564
head 14.9329 4.23955 -2.46852
rclavicle 7.40473e-015 -1.82882e-014
rhumerus -58.5135 11.4742 -87.4514
rradius 38.5675
rwrist -10.8236
rhand -23.7718 -20.7705
rfingers 7.12502
rthumb 2.69778 -50.7332
lclavicle 7.40473e-015 -1.82882e-014
lhumerus -47.9742 -11.2403 84.0909
lradius 35.3418
lwrist -4.16391
lhand -36.3047 19.7358
lfingers 7.12502
lthumb -9.4038 49.506
rfemur -5.04195 26.4486 28.9641
rtibia -1.41914
rfoot -14.4171 -21.3274
rtoes -20.5595
lfemur -3.45257 -28.3455 -25.8784
ltibia 2.35736
lfoot -37.9229 2.18998
ltoes -34.5381
